<svg width="781" height="509" viewBox="0 0 781 509" fill="none" xmlns="http://www.w3.org/2000/svg">
<g clip-path="url(#clip0_6_544)">
<mask id="mask0_6_544" style="mask-type:alpha" maskUnits="userSpaceOnUse" x="0" y="54" width="781" height="395">
<rect x="0.773499" y="54.2459" width="779.859" height="394.659" fill="url(#paint0_linear_6_544)"/>
</mask>
<g mask="url(#mask0_6_544)">
<path d="M682.89 106.079L638.81 88.9638L457.278 89.6242L425.854 76.503L399.266 89.3412L285.649 88.9795L240.629 64.9855H175.17L165.044 88.9717H107.992L0.773499 287.433L120.126 444.023H661.537L780.889 287.433L682.883 106.071L682.89 106.079ZM658.784 436.924H122.879L8.38947 286.71L111.381 96.0708H168.866L178.984 72.0847H239.297L284.303 96.0708L400.477 96.4403L426.01 84.1053L456.217 96.7233L637.823 96.063L678.872 111.999L773.274 286.694L658.784 436.908V436.924Z" fill="url(#paint1_linear_6_544)"/>
</g>
<path d="M773.28 286.709L658.784 436.915H122.879L8.38931 286.709L111.381 96.0701H168.866L178.984 72.0839H239.297L284.309 96.0701L400.476 96.4474L426.01 84.1124L456.216 96.7305L637.823 96.0701L678.872 112.014L773.28 286.709Z" fill="url(#paint2_linear_6_544)"/>
<path d="M773.265 286.709L678.877 112.014L637.814 96.0778L456.222 96.7225L426.015 84.1044L400.468 96.4395L284.301 96.0778L239.295 72.0917H178.989L168.871 96.0778H111.393L8.39449 286.709H77.2696L129.181 331.56H213.255L225.842 286.709H280.378L292.911 223.249H305.35L322.151 214.743L318.627 257.809L365.08 286.709H773.265Z" fill="#4A357D"/>
<path d="M44.8662 263.274H103.542L113.626 240.789H87.6063L106.017 203.273L136.183 190.505L145.714 169.279L117.001 180.89L132.281 149.75L123.278 133.94H140.046H161.568L168.041 119.514H122.541L44.8662 263.274Z" fill="white"/>
<path d="M191.565 95.5192L157.503 176.306L198.802 204.797L215.008 214.53L190.483 230.01L173.174 282.44H145.396L175.102 202.62L152.91 187.195L110.955 286.685L135.838 308.124H198.626L229.733 197.242L187.223 170.048L210.104 108.57H230.558L244.478 115.37L224.788 126.054L211.349 166.786L234.258 181.094L255.198 106.447L234.866 95.5192H191.565Z" fill="white"/>
<path d="M268.137 119.513L232.614 263.272H264.316L276.856 199.812H301.151L331.331 184.537L336.924 131.753L313.63 119.513H268.13H268.137ZM308.875 150.165L304.005 181.494H280.481L289.876 133.931H311.398L327.279 141.439L308.875 150.158V150.165Z" fill="white"/>
<path d="M350.195 119.513L339.968 244.506L370.135 263.272H428.81L421.012 131.753L395.702 119.513H350.202H350.195ZM396.128 163.743L396.885 240.78H370.865L374.321 133.931H395.844L412.381 141.439L396.135 163.743H396.128Z" fill="white"/>
<path d="M438.36 131.808L450.637 263.272H482.338L473.268 199.812H497.563L509.305 263.272H541.014L526.79 202.619L508.128 193.436L522.549 184.537L507.296 119.513H461.797L438.36 131.808V131.808ZM494.182 181.494H470.657L466.207 150.331L447.85 141.447L463.86 133.939H485.382L494.182 181.502V181.494Z" fill="white"/>
<path d="M519.058 133.939H540.249L578.065 263.272H609.774L570.896 149.56L548.69 133.766H586.351L580.899 119.513H515.44L519.058 133.939Z" fill="white"/>
<path d="M692.399 181.094L665.649 131.588L634.535 119.513H589.036L611.708 176.306L676.389 204.797L694.056 240.788H668.029L650.91 202.619L616.05 187.194L638.925 244.506L678.121 263.272H736.796L701.118 197.242L636.294 170.048L627.21 149.796L603.341 133.939H641.617L657.735 166.785L692.399 181.094Z" fill="white"/>
<path d="M427.076 102.287C423.755 106.053 419.994 109.543 415.862 112.712C420.38 115.911 424.675 119.559 428.686 123.592C432.088 119.559 435.835 115.911 439.866 112.712C435.253 109.543 430.965 106.053 427.076 102.287Z" fill="#E2D45C"/>
<path d="M80.6204 245.505L99.6603 206.7C92.599 207.635 85.5985 208.594 78.6589 209.593L52.206 258.555H101.081L106.931 245.505H80.6204V245.505Z" fill="url(#paint3_linear_6_544)"/>
<path d="M217.133 194.568C209.571 195.142 202.057 195.755 194.589 196.408L200.772 200.669L221.083 212.862L224.83 199.489L217.133 194.568V194.568ZM193.73 233.318L175.969 287.156H139.222L169.969 204.544L162.57 199.403C158.972 199.765 155.38 200.134 151.809 200.519L116.09 285.229L137.179 303.406H195.678L219.987 216.754L193.73 233.318V233.318Z" fill="url(#paint4_linear_6_544)"/>
<path d="M311.996 189.183L300.315 195.095H273.632L261.092 258.555H238.007L254.45 192.005C273.375 190.85 292.564 189.906 311.996 189.183Z" fill="url(#paint5_linear_6_544)"/>
<path d="M424.461 258.555H371.156L344.264 241.834L348.667 188.067C355.261 187.91 361.876 187.784 368.518 187.682L366.652 245.505H400.991L400.423 187.375C403.46 187.367 406.503 187.36 409.554 187.36C413.125 187.36 416.69 187.367 420.241 187.383L424.461 258.555V258.555Z" fill="url(#paint6_linear_6_544)"/>
<path d="M535.705 258.555H512.586L500.845 195.095H468.48L477.55 258.555H454.276L447.654 187.634C467.459 187.917 487.053 188.428 506.411 189.151L498.694 193.916L523.395 206.07L535.705 258.555V258.555Z" fill="url(#paint7_linear_6_544)"/>
<path d="M581.409 193.082C574.794 192.634 568.145 192.209 561.463 191.816L580.976 258.555H603.797L581.409 193.082Z" fill="url(#paint8_linear_6_544)"/>
<path d="M700.119 204.255C693.335 203.429 686.504 202.627 679.619 201.857L701.046 245.505H665.57L648.025 206.393L625.685 196.503C625.184 196.456 624.69 196.417 624.19 196.377L641.945 240.851L678.922 258.556H729.461L700.119 204.255V204.255Z" fill="url(#paint9_linear_6_544)"/>
<path fill-rule="evenodd" clip-rule="evenodd" d="M324.068 369.061V359.36L301.01 369.329H300.963V379.282H301.01L324.068 389.25V379.533L312.252 374.282L324.068 369.061V369.061Z" fill="#996DFF"/>
<path fill-rule="evenodd" clip-rule="evenodd" d="M457.626 388.747V379.046L469.435 373.826L457.626 368.606V358.904L480.65 368.865H480.704V378.826H480.65L457.626 388.739V388.747ZM447.737 345.201L434.196 395.721H442.238L455.779 345.201H447.737Z" fill="#996DFF"/>
<path fill-rule="evenodd" clip-rule="evenodd" d="M357.949 357.528C360.235 360.453 361.439 364.305 361.297 368.251V389.769H353.255V370.225C353.349 368.047 352.747 365.909 351.577 364.21C350.461 362.701 348.811 361.868 347.1 361.954C342.067 361.954 339.545 366.011 339.545 374.132V389.777H331.503V354.446H339.545V357.638C342.095 354.753 345.558 353.22 349.115 353.393C352.43 353.228 355.649 354.737 357.942 357.528H357.949Z" fill="white"/>
<path fill-rule="evenodd" clip-rule="evenodd" d="M371.53 339.753V390.272H379.572V339.753H371.53Z" fill="white"/>
<path fill-rule="evenodd" clip-rule="evenodd" d="M425.01 388.425H418.3L411.726 367.615L405.09 388.425H398.394L387.126 353.031H395.716L402.047 374.195L408.574 353.031H414.844L421.371 374.266L427.702 353.031H436.292L425.01 388.425V388.425Z" fill="white"/>
<path d="M33.5583 82.4857C42.6623 56.9272 61.0462 36.7854 88.1823 22.6265C114.182 9.05712 147.128 1.50986 186.094 0.204811C265.974 -2.47604 362.405 21.2821 457.604 67.1239C464.449 70.4179 471.233 73.7985 477.943 77.2655L468.453 77.297C464.381 75.245 460.276 73.2246 456.136 71.2356C261.09 -22.665 73.1059 -16.8551 37.0958 84.1917C26.6661 113.453 30.1088 147.534 45.0026 183.477C81.52 271.67 186.946 371.051 325.522 437.765C338.928 444.22 352.347 450.226 365.746 455.784C447.039 489.527 527.332 506.626 595.456 504.338C633.921 503.049 666.367 495.635 691.907 482.31C718.13 468.63 735.844 449.283 744.563 424.809C752.429 402.725 752.402 377.898 745.509 351.593L748.452 347.733C756.528 376.727 756.419 403.197 748.107 426.515C738.996 452.074 720.619 472.215 693.476 486.374C667.476 499.944 634.537 507.491 595.571 508.796C591.499 508.93 587.387 509 583.234 509C514.562 509 434.797 490.392 354.545 455.784C344.379 451.405 334.213 446.767 324.054 441.877C228.855 396.043 146.215 333.597 91.3613 266.041C69.7917 239.477 53.4505 213.266 42.6218 187.88C40.011 181.771 37.7248 175.718 35.7633 169.719C25.1916 137.4 24.4476 108.052 33.5583 82.4857V82.4857Z" fill="url(#paint10_linear_6_544)"/>
<path d="M33.5583 82.4857C42.6623 56.9272 61.0462 36.7854 88.1823 22.6265C114.182 9.05712 147.128 1.50986 186.094 0.204811C265.974 -2.47604 362.405 21.2821 457.604 67.1239C464.449 70.4179 471.233 73.7985 477.943 77.2655L468.453 77.297C464.381 75.245 460.276 73.2246 456.136 71.2356C261.09 -22.665 73.1059 -16.8551 37.0958 84.1917C26.6661 113.453 30.1088 147.534 45.0026 183.477C81.52 271.67 186.946 371.051 325.522 437.765C338.928 444.22 352.347 450.226 365.746 455.784C447.039 489.527 527.332 506.626 595.456 504.338C633.921 503.049 666.367 495.635 691.907 482.31C718.13 468.63 735.844 449.283 744.563 424.809C752.429 402.725 752.402 377.898 745.509 351.593L748.452 347.733C756.528 376.727 756.419 403.197 748.107 426.515C738.996 452.074 720.619 472.215 693.476 486.374C667.476 499.944 634.537 507.491 595.571 508.796C591.499 508.93 587.387 509 583.234 509C514.562 509 434.797 490.392 354.545 455.784C344.379 451.405 334.213 446.767 324.054 441.877C228.855 396.043 146.215 333.597 91.3613 266.041C69.7917 239.477 53.4505 213.266 42.6218 187.88C40.011 181.771 37.7248 175.718 35.7633 169.719C25.1916 137.4 24.4476 108.052 33.5583 82.4857V82.4857Z" fill="url(#paint11_radial_6_544)"/>
<path d="M33.5583 82.4857C42.6623 56.9272 61.0462 36.7854 88.1823 22.6265C114.182 9.05712 147.128 1.50986 186.094 0.204811C265.974 -2.47604 362.405 21.2821 457.604 67.1239C464.449 70.4179 471.233 73.7985 477.943 77.2655L468.453 77.297C464.381 75.245 460.276 73.2246 456.136 71.2356C261.09 -22.665 73.1059 -16.8551 37.0958 84.1917C26.6661 113.453 30.1088 147.534 45.0026 183.477C81.52 271.67 186.946 371.051 325.522 437.765C338.928 444.22 352.347 450.226 365.746 455.784C447.039 489.527 527.332 506.626 595.456 504.338C633.921 503.049 666.367 495.635 691.907 482.31C718.13 468.63 735.844 449.283 744.563 424.809C752.429 402.725 752.402 377.898 745.509 351.593L748.452 347.733C756.528 376.727 756.419 403.197 748.107 426.515C738.996 452.074 720.619 472.215 693.476 486.374C667.476 499.944 634.537 507.491 595.571 508.796C591.499 508.93 587.387 509 583.234 509C514.562 509 434.797 490.392 354.545 455.784C344.379 451.405 334.213 446.767 324.054 441.877C228.855 396.043 146.215 333.597 91.3613 266.041C69.7917 239.477 53.4505 213.266 42.6218 187.88C40.011 181.771 37.7248 175.718 35.7633 169.719C25.1916 137.4 24.4476 108.052 33.5583 82.4857V82.4857Z" fill="url(#paint12_radial_6_544)"/>
<path d="M33.5583 82.4857C42.6623 56.9272 61.0462 36.7854 88.1823 22.6265C114.182 9.05712 147.128 1.50986 186.094 0.204811C265.974 -2.47604 362.405 21.2821 457.604 67.1239C464.449 70.4179 471.233 73.7985 477.943 77.2655L468.453 77.297C464.381 75.245 460.276 73.2246 456.136 71.2356C261.09 -22.665 73.1059 -16.8551 37.0958 84.1917C26.6661 113.453 30.1088 147.534 45.0026 183.477C81.52 271.67 186.946 371.051 325.522 437.765C338.928 444.22 352.347 450.226 365.746 455.784C447.039 489.527 527.332 506.626 595.456 504.338C633.921 503.049 666.367 495.635 691.907 482.31C718.13 468.63 735.844 449.283 744.563 424.809C752.429 402.725 752.402 377.898 745.509 351.593L748.452 347.733C756.528 376.727 756.419 403.197 748.107 426.515C738.996 452.074 720.619 472.215 693.476 486.374C667.476 499.944 634.537 507.491 595.571 508.796C591.499 508.93 587.387 509 583.234 509C514.562 509 434.797 490.392 354.545 455.784C344.379 451.405 334.213 446.767 324.054 441.877C228.855 396.043 146.215 333.597 91.3613 266.041C69.7917 239.477 53.4505 213.266 42.6218 187.88C40.011 181.771 37.7248 175.718 35.7633 169.719C25.1916 137.4 24.4476 108.052 33.5583 82.4857V82.4857Z" fill="url(#paint13_radial_6_544)"/>
<path d="M748.106 82.4857C739.002 56.9272 720.618 36.7854 693.482 22.6265C667.482 9.05712 634.536 1.50986 595.57 0.204811C515.691 -2.47604 419.26 21.2821 324.06 67.1239C317.216 70.4179 310.431 73.7985 303.722 77.2655L313.211 77.297C317.283 75.245 321.389 73.2246 325.528 71.2356C520.574 -22.665 708.559 -16.8551 744.569 84.1917C754.999 113.453 751.556 147.534 736.662 183.477C700.145 271.67 594.718 371.051 456.143 437.765C442.737 444.22 429.318 450.226 415.919 455.784C334.625 489.527 254.333 506.626 186.209 504.338C147.743 503.049 115.298 495.635 89.7577 482.31C63.5347 468.63 45.8205 449.283 37.102 424.809C29.2358 402.725 29.2629 377.898 36.1551 351.593L33.2129 347.733C25.137 376.727 25.2452 403.197 33.5578 426.515C42.6686 452.074 61.0457 472.215 88.1886 486.374C114.188 499.944 147.128 507.491 186.094 508.796C190.165 508.93 194.278 509 198.431 509C267.103 509 346.868 490.392 427.12 455.784C437.285 451.405 447.451 446.767 457.61 441.877C552.81 396.043 635.449 333.597 690.303 266.041C711.873 239.477 728.214 213.266 739.043 187.88C741.654 181.771 743.94 175.718 745.901 169.719C756.473 137.4 757.217 108.052 748.106 82.4857V82.4857Z" fill="url(#paint14_linear_6_544)"/>
<path d="M748.106 82.4857C739.002 56.9272 720.618 36.7854 693.482 22.6265C667.482 9.05712 634.536 1.50986 595.57 0.204811C515.691 -2.47604 419.26 21.2821 324.06 67.1239C317.216 70.4179 310.431 73.7985 303.722 77.2655L313.211 77.297C317.283 75.245 321.389 73.2246 325.528 71.2356C520.574 -22.665 708.559 -16.8551 744.569 84.1917C754.999 113.453 751.556 147.534 736.662 183.477C700.145 271.67 594.718 371.051 456.143 437.765C442.737 444.22 429.318 450.226 415.919 455.784C334.625 489.527 254.333 506.626 186.209 504.338C147.743 503.049 115.298 495.635 89.7577 482.31C63.5347 468.63 45.8205 449.283 37.102 424.809C29.2358 402.725 29.2629 377.898 36.1551 351.593L33.2129 347.733C25.137 376.727 25.2452 403.197 33.5578 426.515C42.6686 452.074 61.0457 472.215 88.1886 486.374C114.188 499.944 147.128 507.491 186.094 508.796C190.165 508.93 194.278 509 198.431 509C267.103 509 346.868 490.392 427.12 455.784C437.285 451.405 447.451 446.767 457.61 441.877C552.81 396.043 635.449 333.597 690.303 266.041C711.873 239.477 728.214 213.266 739.043 187.88C741.654 181.771 743.94 175.718 745.901 169.719C756.473 137.4 757.217 108.052 748.106 82.4857V82.4857Z" fill="url(#paint15_radial_6_544)"/>
<path d="M748.106 82.4857C739.002 56.9272 720.618 36.7854 693.482 22.6265C667.482 9.05712 634.536 1.50986 595.57 0.204811C515.691 -2.47604 419.26 21.2821 324.06 67.1239C317.216 70.4179 310.431 73.7985 303.722 77.2655L313.211 77.297C317.283 75.245 321.389 73.2246 325.528 71.2356C520.574 -22.665 708.559 -16.8551 744.569 84.1917C754.999 113.453 751.556 147.534 736.662 183.477C700.145 271.67 594.718 371.051 456.143 437.765C442.737 444.22 429.318 450.226 415.919 455.784C334.625 489.527 254.333 506.626 186.209 504.338C147.743 503.049 115.298 495.635 89.7577 482.31C63.5347 468.63 45.8205 449.283 37.102 424.809C29.2358 402.725 29.2629 377.898 36.1551 351.593L33.2129 347.733C25.137 376.727 25.2452 403.197 33.5578 426.515C42.6686 452.074 61.0457 472.215 88.1886 486.374C114.188 499.944 147.128 507.491 186.094 508.796C190.165 508.93 194.278 509 198.431 509C267.103 509 346.868 490.392 427.12 455.784C437.285 451.405 447.451 446.767 457.61 441.877C552.81 396.043 635.449 333.597 690.303 266.041C711.873 239.477 728.214 213.266 739.043 187.88C741.654 181.771 743.94 175.718 745.901 169.719C756.473 137.4 757.217 108.052 748.106 82.4857V82.4857Z" fill="url(#paint16_radial_6_544)"/>
</g>
<defs>
<linearGradient id="paint0_linear_6_544" x1="390.703" y1="237.817" x2="390.703" y2="431.216" gradientUnits="userSpaceOnUse">
<stop stop-color="#D9D9D9"/>
<stop offset="1" stop-color="#D9D9D9" stop-opacity="0"/>
</linearGradient>
<linearGradient id="paint1_linear_6_544" x1="0.773499" y1="254.5" x2="780.896" y2="254.5" gradientUnits="userSpaceOnUse">
<stop stop-color="#996DFF"/>
<stop offset="0.5" stop-color="#35E8B3"/>
<stop offset="1" stop-color="#E2D45C"/>
</linearGradient>
<linearGradient id="paint2_linear_6_544" x1="390.831" y1="292.393" x2="390.831" y2="433.181" gradientUnits="userSpaceOnUse">
<stop stop-color="#28203E"/>
<stop offset="1" stop-color="#121214" stop-opacity="0"/>
</linearGradient>
<linearGradient id="paint3_linear_6_544" x1="79.572" y1="194.105" x2="79.572" y2="249.585" gradientUnits="userSpaceOnUse">
<stop stop-color="#A9A9AD"/>
<stop offset="1" stop-color="#A9A9AD" stop-opacity="0"/>
</linearGradient>
<linearGradient id="paint4_linear_6_544" x1="170.463" y1="194.104" x2="170.463" y2="249.584" gradientUnits="userSpaceOnUse">
<stop stop-color="#A9A9AD"/>
<stop offset="1" stop-color="#A9A9AD" stop-opacity="0"/>
</linearGradient>
<linearGradient id="paint5_linear_6_544" x1="275.005" y1="194.104" x2="275.005" y2="249.585" gradientUnits="userSpaceOnUse">
<stop stop-color="#A9A9AD"/>
<stop offset="1" stop-color="#A9A9AD" stop-opacity="0"/>
</linearGradient>
<linearGradient id="paint6_linear_6_544" x1="384.366" y1="194.105" x2="384.366" y2="249.585" gradientUnits="userSpaceOnUse">
<stop stop-color="#A9A9AD"/>
<stop offset="1" stop-color="#A9A9AD" stop-opacity="0"/>
</linearGradient>
<linearGradient id="paint7_linear_6_544" x1="491.68" y1="194.104" x2="491.68" y2="249.585" gradientUnits="userSpaceOnUse">
<stop stop-color="#A9A9AD"/>
<stop offset="1" stop-color="#A9A9AD" stop-opacity="0"/>
</linearGradient>
<linearGradient id="paint8_linear_6_544" x1="582.633" y1="194.104" x2="582.633" y2="249.584" gradientUnits="userSpaceOnUse">
<stop stop-color="#A9A9AD"/>
<stop offset="1" stop-color="#A9A9AD" stop-opacity="0"/>
</linearGradient>
<linearGradient id="paint9_linear_6_544" x1="676.825" y1="194.105" x2="676.825" y2="249.586" gradientUnits="userSpaceOnUse">
<stop stop-color="#A9A9AD"/>
<stop offset="1" stop-color="#A9A9AD" stop-opacity="0"/>
</linearGradient>
<linearGradient id="paint10_linear_6_544" x1="708.6" y1="364.392" x2="181.701" y2="366.719" gradientUnits="userSpaceOnUse">
<stop stop-color="#996DFF"/>
<stop offset="0.5" stop-color="#35E8B3"/>
<stop offset="1" stop-color="#E2D45C"/>
</linearGradient>
<radialGradient id="paint11_radial_6_544" cx="0" cy="0" r="1" gradientUnits="userSpaceOnUse" gradientTransform="translate(386.021 465.138) rotate(18.1624) scale(358.748 674.958)">
<stop stop-color="#171226"/>
<stop offset="1" stop-color="#171226" stop-opacity="0"/>
</radialGradient>
<radialGradient id="paint12_radial_6_544" cx="0" cy="0" r="1" gradientUnits="userSpaceOnUse" gradientTransform="translate(476.838 79.5316) rotate(-153.779) scale(81.8194 149.914)">
<stop stop-color="#261945"/>
<stop offset="1" stop-color="#261945" stop-opacity="0"/>
</radialGradient>
<radialGradient id="paint13_radial_6_544" cx="0" cy="0" r="1" gradientUnits="userSpaceOnUse" gradientTransform="translate(749.288 341.262) rotate(78.5298) scale(104.268 151.031)">
<stop stop-color="#191326"/>
<stop offset="1" stop-color="#191326" stop-opacity="0"/>
</radialGradient>
<linearGradient id="paint14_linear_6_544" x1="410.901" y1="56.3952" x2="562.833" y2="387.779" gradientUnits="userSpaceOnUse">
<stop stop-color="#996DFF"/>
<stop offset="0.5" stop-color="#35E8B3"/>
<stop offset="1" stop-color="#E2D45C"/>
</linearGradient>
<radialGradient id="paint15_radial_6_544" cx="0" cy="0" r="1" gradientUnits="userSpaceOnUse" gradientTransform="translate(296.447 87.2437) rotate(-22.207) scale(183.644 341.306)">
<stop stop-color="#171225"/>
<stop offset="1" stop-color="#171225" stop-opacity="0"/>
</radialGradient>
<radialGradient id="paint16_radial_6_544" cx="0" cy="0" r="1" gradientUnits="userSpaceOnUse" gradientTransform="translate(33.5341 346.082) rotate(70.3595) scale(138.181 205.243)">
<stop stop-color="#191327"/>
<stop offset="1" stop-color="#191327" stop-opacity="0"/>
</radialGradient>
<clipPath id="clip0_6_544">
<rect width="780.123" height="509" fill="white" transform="translate(0.773499)"/>
</clipPath>
</defs>
</svg>
